<?xml version="1.0" standalone="no"?>
<!DOCTYPE svg PUBLIC "-//W3C//DTD SVG 20010904//EN"
 "http://www.w3.org/TR/2001/REC-SVG-20010904/DTD/svg10.dtd">
<svg version="1.0" xmlns="http://www.w3.org/2000/svg"
 width="180.000000pt" height="180.000000pt" viewBox="0 0 180.000000 180.000000"
 preserveAspectRatio="xMidYMid meet">

<g transform="translate(0.000000,180.000000) scale(0.100000,-0.100000)"
fill="#000000" stroke="none">
<path d="M414 1415 l-25 -25 3 -443 3 -442 25 -50 c32 -63 66 -83 169 -95 101
-13 157 -1 171 36 14 35 12 131 -1 157 -16 29 -28 37 -64 37 -62 1 -60 -18
-65 416 l-5 396 -24 19 c-18 15 -39 19 -93 19 -60 0 -72 -3 -94 -25z"/>
<path d="M913 1089 c-63 -18 -63 -21 -63 -367 l0 -313 25 -24 c21 -21 33 -25
89 -25 84 0 113 14 126 59 5 20 10 115 10 213 l0 176 31 26 c34 29 89 34 145
14 47 -17 88 3 114 56 22 46 26 116 9 148 -15 29 -70 48 -137 48 -47 0 -67 -6
-104 -29 -25 -16 -49 -35 -53 -41 -5 -8 -12 -2 -21 18 -19 45 -94 63 -171 41z"/>
</g>
</svg>
