<?xml version="1.0" encoding="UTF-8"?>
<!DOCTYPE svg PUBLIC "-//W3C//DTD SVG 1.1//EN" "http://www.w3.org/Graphics/SVG/1.1/DTD/svg11.dtd">
<svg xmlns="http://www.w3.org/2000/svg" version="1.1" width="192px" height="192px" style="shape-rendering:geometricPrecision; text-rendering:geometricPrecision; image-rendering:optimizeQuality; fill-rule:evenodd; clip-rule:evenodd" xmlns:xlink="http://www.w3.org/1999/xlink">
<g><path style="opacity:0.997" fill="#fefefe" d="M 10.5,-0.5 C 67.1667,-0.5 123.833,-0.5 180.5,-0.5C 184.5,2.83333 188.167,6.5 191.5,10.5C 191.5,67.1667 191.5,123.833 191.5,180.5C 188.167,184.5 184.5,188.167 180.5,191.5C 123.833,191.5 67.1667,191.5 10.5,191.5C 6.5,188.167 2.83333,184.5 -0.5,180.5C -0.5,123.833 -0.5,67.1667 -0.5,10.5C 2.83333,6.5 6.5,2.83333 10.5,-0.5 Z"/></g>
<g><path style="opacity:1" fill="#050505" d="M 54.5,43.5 C 61.4455,42.4706 67.6121,44.1373 73,48.5C 74.2455,78.8287 74.9122,109.162 75,139.5C 73.7296,143.77 70.8963,146.27 66.5,147C 60.5743,148.11 54.9077,147.444 49.5,145C 47.5125,143.681 46.3459,141.848 46,139.5C 45.8048,110.986 45.3048,82.4856 44.5,54C 44.5419,52.0326 45.0419,50.1992 46,48.5C 48.6822,46.415 51.5155,44.7483 54.5,43.5 Z"/></g>
<g><path style="opacity:1" fill="#040404" d="M 117.5,77.5 C 124.508,77.3337 131.508,77.5004 138.5,78C 144.118,78.9298 146.618,82.0964 146,87.5C 145.097,88.7014 143.931,89.5348 142.5,90C 136.324,91.0439 130.324,92.7106 124.5,95C 119.108,101.309 117.108,108.643 118.5,117C 118.369,123.768 119.036,130.435 120.5,137C 120.805,142.696 118.139,146.029 112.5,147C 106.574,148.11 100.908,147.444 95.5,145C 93.9512,143.786 92.7845,142.286 92,140.5C 90.3764,121.535 87.7098,102.868 84,84.5C 85.7309,82.3834 87.8976,80.8834 90.5,80C 97.0106,78.9685 103.344,79.4685 109.5,81.5C 111.991,79.5877 114.658,78.2544 117.5,77.5 Z"/></g>
</svg>
