<?xml version="1.0" encoding="UTF-8"?>
<!DOCTYPE svg PUBLIC "-//W3C//DTD SVG 1.1//EN" "http://www.w3.org/Graphics/SVG/1.1/DTD/svg11.dtd">
<svg xmlns="http://www.w3.org/2000/svg" version="1.1" width="180px" height="180px" style="shape-rendering:geometricPrecision; text-rendering:geometricPrecision; image-rendering:optimizeQuality; fill-rule:evenodd; clip-rule:evenodd" xmlns:xlink="http://www.w3.org/1999/xlink">
<g><path style="opacity:0.979" fill="#fdfdfd" d="M 73.5,-0.5 C 84.1667,-0.5 94.8333,-0.5 105.5,-0.5C 145.167,9.16667 169.833,33.8333 179.5,73.5C 179.5,84.1667 179.5,94.8333 179.5,105.5C 169.833,145.167 145.167,169.833 105.5,179.5C 94.8333,179.5 84.1667,179.5 73.5,179.5C 33.8333,169.833 9.16667,145.167 -0.5,105.5C -0.5,94.8333 -0.5,84.1667 -0.5,73.5C 9.16667,33.8333 33.8333,9.16667 73.5,-0.5 Z"/></g>
<g><path style="opacity:1" fill="#020202" d="M 42.5,35.5 C 47.1785,35.3342 51.8452,35.5008 56.5,36C 58.8477,36.3459 60.6811,37.5125 62,39.5C 62.3333,65.1667 62.6667,90.8333 63,116.5C 63.3095,117.766 63.8095,118.933 64.5,120C 69.198,119.546 73.0313,121.046 76,124.5C 76.6667,129.167 76.6667,133.833 76,138.5C 75.4257,140.492 74.259,141.992 72.5,143C 64.7706,144.884 57.104,144.551 49.5,142C 43.812,139.807 40.6453,135.64 40,129.5C 38.3735,99.8735 38.0402,70.2068 39,40.5C 39.9973,38.6769 41.1639,37.0103 42.5,35.5 Z"/></g>
<g><path style="opacity:1" fill="#050505" d="M 91.5,69.5 C 96.742,69.0227 101.742,69.8561 106.5,72C 107.717,73.6477 108.55,75.481 109,77.5C 115.185,69.9977 123.019,67.4977 132.5,70C 140.198,72.3791 142.698,77.5458 140,85.5C 139.036,89.4685 136.869,92.6351 133.5,95C 127.67,93.8892 121.67,93.5558 115.5,94C 113.061,94.7739 111.227,96.2739 110,98.5C 109.667,111.167 109.333,123.833 109,136.5C 108.167,140 106,142.167 102.5,143C 97.4107,143.826 92.4107,143.492 87.5,142C 86.2986,141.097 85.4652,139.931 85,138.5C 84.3333,117.5 84.3333,96.5 85,75.5C 86.4936,72.6865 88.6603,70.6865 91.5,69.5 Z"/></g>
</svg>
